<?xml version="1.0" encoding="utf-8"?>
<!-- Generator: Adobe Illustrator 23.1.1, SVG Export Plug-In . SVG Version: 6.00 Build 0)  -->
<svg version="1.1" id="Layer_1" xmlns="http://www.w3.org/2000/svg" xmlns:xlink="http://www.w3.org/1999/xlink" x="0px" y="0px"
	 viewBox="0 0 245.85 52.73" style="enable-background:new 0 0 245.85 52.73;" xml:space="preserve">
<style type="text/css">
	.st0{fill:#9BC6EF;}
	.st1{fill:#005BAC;}
	.st2{fill:#002856;}
	.st3{fill:#6A8ECF;}
	.st4{fill:#B6D786;}
	.st5{fill:#F8E226;}
	.st6{fill:#9BB2E1;}
	.st7{fill:#82C6B3;}
	.st8{fill:#EAAF00;}
	.st9{fill:#BCC6E9;}
	.st10{fill:#C7C7C7;}
	.st11{fill:#DD6630;}
	.st12{fill:#A9AAAA;}
	.st13{fill:#C989BC;}
	.st14{clip-path:url(#SVGID_6_);}
	.st15{clip-path:url(#SVGID_8_);}
	.st16{clip-path:url(#SVGID_10_);}
	.st17{clip-path:url(#SVGID_12_);}
	.st18{clip-path:url(#SVGID_14_);}
	.st19{fill:#0365AC;}
	.st20{fill:#221F20;}
	.st21{clip-path:url(#SVGID_24_);fill:none;stroke:#221815;stroke-width:0.3;}
	.st22{clip-path:url(#SVGID_24_);}
	.st23{clip-path:url(#SVGID_26_);fill:#82C1EA;}
	.st24{clip-path:url(#SVGID_26_);fill:#AFC0E3;}
	.st25{clip-path:url(#SVGID_26_);fill:#63C0AB;}
	.st26{clip-path:url(#SVGID_26_);fill:#A8D182;}
	.st27{clip-path:url(#SVGID_26_);fill:#88ABDA;}
	.st28{clip-path:url(#SVGID_26_);fill:#BFC0C0;}
	.st29{clip-path:url(#SVGID_26_);fill:#9FA0A0;}
	.st30{clip-path:url(#SVGID_28_);fill:none;stroke:#9FA0A0;stroke-width:0.15;}
	.st31{clip-path:url(#SVGID_30_);fill:#9FA0A0;}
	.st32{clip-path:url(#SVGID_30_);fill:#88ABDA;}
	.st33{clip-path:url(#SVGID_30_);fill:#005BAC;}
	.st34{clip-path:url(#SVGID_30_);fill:none;stroke:#221815;stroke-width:0.2;stroke-miterlimit:10;}
	.st35{clip-path:url(#SVGID_30_);fill:#F5A200;}
	.st36{clip-path:url(#SVGID_32_);fill:#F5A200;}
	.st37{clip-path:url(#SVGID_34_);fill:#005BAC;}
	.st38{clip-path:url(#SVGID_36_);fill:none;stroke:#EA5532;stroke-width:1.2;stroke-miterlimit:10;}
	.st39{clip-path:url(#SVGID_38_);fill:#5185C5;}
	.st40{clip-path:url(#SVGID_38_);fill:#005BAC;}
	.st41{clip-path:url(#SVGID_40_);fill:#88ABDA;}
	.st42{clip-path:url(#SVGID_42_);fill:#AFC0E3;}
	.st43{clip-path:url(#SVGID_44_);fill:#82C1EA;}
	.st44{clip-path:url(#SVGID_46_);fill:#A8D182;}
	.st45{clip-path:url(#SVGID_48_);fill:#63C0AB;}
	.st46{clip-path:url(#SVGID_50_);fill:#BFC0C0;}
	.st47{clip-path:url(#SVGID_52_);fill:#9FA0A0;}
	.st48{clip-path:url(#SVGID_54_);fill:#FFDB3F;}
	.st49{clip-path:url(#SVGID_56_);fill:#F5A200;}
	.st50{clip-path:url(#SVGID_58_);fill:#EA5532;}
	.st51{clip-path:url(#SVGID_60_);fill:#CC7DB1;}
	.st52{clip-path:url(#SVGID_62_);fill:none;stroke:#221815;stroke-width:0.499;}
	.st53{clip-path:url(#SVGID_64_);fill:none;stroke:#221815;stroke-width:0.499;}
	.st54{fill:#FFFFFF;}
	.st55{fill:none;stroke:#005BAC;stroke-width:2;stroke-miterlimit:10;}
	.st56{fill:#005BAC;stroke:#005BAC;stroke-width:2;stroke-miterlimit:10;}
</style>
<g>
	<g>
		<polygon class="st19" points="119.49,0.55 128.1,0.55 128.1,13.73 128.19,13.73 137.9,0.55 148.26,0.55 136.33,15.58 
			149.17,32.84 138.22,32.84 128.19,18.16 128.1,18.16 128.1,32.84 119.49,32.84 		"/>
		<path class="st19" d="M167.76,19.83h-8.1l4.18-12.63h0.09L167.76,19.83z M146.4,32.84h8.72l2.55-6.9h12.11l2.41,6.9h9.43
			L169.18,0.55h-10.53L146.4,32.84z"/>
		<path class="st19" d="M182.84,24.87c2.22,1.21,5.32,2.13,8.87,2.13c2.74,0,5.34-0.55,5.34-3.15c0-6.01-15.27-2.21-15.27-13.97
			c0-7.77,7.59-9.88,14.06-9.88c3.1,0,6.15,0.45,8.32,1.19l-0.55,6.67c-2.22-1.02-4.73-1.47-7.16-1.47c-2.18,0-5.78,0.18-5.78,3
			c0,5.23,15.25,1.7,15.25,13.36c0,8.37-7.03,10.65-14.2,10.65c-2.99,0-6.75-0.46-9.6-1.4L182.84,24.87z"/>
		<polygon class="st19" points="209.56,0.55 232.33,0.55 232.33,6.65 218.17,6.65 218.17,13.31 231.54,13.31 231.54,19.41 
			218.17,19.41 218.17,26.73 232.83,26.73 232.83,32.84 209.56,32.84 		"/>
		<rect x="237.22" y="0.55" class="st19" width="8.61" height="32.29"/>
		<path class="st19" d="M22.47,20.9H9.61l6.43-16L22.47,20.9z M0,32.84h4.85l3.28-8.16h15.81l3.28,8.16h5.05L18.63,0.55h-4.86
			L0,32.84z"/>
		<path class="st19" d="M34.77,28.2c1.71,1.11,4.16,1.67,5.41,1.67c1.99,0,4.43-0.83,4.43-3.36c0-4.32-10.21-3.95-10.21-10.56
			c0-4.91,3.65-7.26,8.33-7.26c2.02,0,3.69,0.41,5.4,0.93l-0.37,3.79c-0.97-0.6-3.57-1.2-4.58-1.2c-2.21,0-4.16,0.92-4.16,2.86
			c0,4.82,10.21,3.43,10.21,10.97c0,5.03-4.02,7.36-8.22,7.36c-2.23,0-4.49-0.23-6.48-1.31L34.77,28.2z"/>
		<path class="st19" d="M68.52,23.67c0,3.51-2.27,6.2-6.56,6.2c-1.99,0-4.39-1.34-4.39-3.83c0-4.17,5.82-4.54,8.18-4.54
			c0.93,0,1.86,0.09,2.78,0.09V23.67z M55.85,14.61c1.76-1.48,4.4-2.41,6.85-2.41c4.35,0,5.82,2.08,5.82,6.14
			c-1.71-0.09-2.91-0.09-4.62-0.09c-4.49,0-10.97,1.86-10.97,7.78c0,5.12,3.56,7.36,8.66,7.36c3.96,0,6.29-2.19,7.3-3.62h0.08v3.07
			h4.08c-0.1-0.71-0.19-1.96-0.19-4.64v-9.74c0-6.44-2.73-9.78-9.48-9.78c-3,0-5.59,0.93-7.77,2.21L55.85,14.61z"/>
		<path class="st19" d="M79.27,0.51h4.35v12.11h0.09c1.58-2.5,4.31-3.94,7.58-3.94c6.11,0,8.84,3.81,8.84,10.13v14.03h-4.36V20.62
			c0-5.5-1.2-8.19-4.98-8.41c-4.95,0-7.17,3.97-7.17,9.7v10.94h-4.35V0.51z"/>
		<path class="st19" d="M106.55,9.23h4.35v23.61h-4.35V9.23z M111.17,5.39h-4.89v-4.9h4.89V5.39z"/>
	</g>
	<path class="st20" d="M51.68,48.36l1.47-5.14h0.03l1.35,5.14H51.68z M55.69,52.56h2.02l-3.44-11.01h-2.15l-3.58,11.01h1.96
		l0.77-2.65h3.67L55.69,52.56z"/>
	<path class="st20" d="M58.24,50.43c0.39,0.25,1.23,0.68,2.27,0.68c0.86,0,1.63-0.49,1.63-1.59c0-0.79-0.44-1.14-1.39-1.68
		l-0.99-0.56c-1.06-0.6-1.75-1.48-1.75-2.89c0-1.98,1.58-3,3.37-3c1.13,0,1.93,0.3,2.24,0.39l-0.09,1.69c-0.48-0.19-1.1-0.47-2-0.47
		c-0.98,0-1.49,0.54-1.49,1.3c0,0.82,0.53,1.13,1.13,1.48l1.14,0.67c1.26,0.72,1.86,1.41,1.86,2.96c0,2.24-1.54,3.31-3.58,3.31
		c-1.07,0-1.9-0.15-2.44-0.49L58.24,50.43z"/>
	<path class="st20" d="M3.37,48.36l1.47-5.14h0.03l1.35,5.14H3.37z M7.38,52.56h2.03L5.96,41.55H3.81L0.22,52.56h1.96l0.77-2.65
		h3.68L7.38,52.56z"/>
	<path class="st20" d="M9.97,50.43c0.38,0.25,1.22,0.68,2.26,0.68c0.85,0,1.62-0.49,1.62-1.59c0-0.79-0.44-1.14-1.39-1.68l-1-0.56
		c-1.06-0.6-1.74-1.48-1.74-2.89c0-1.98,1.58-3,3.37-3c1.13,0,1.93,0.3,2.24,0.39l-0.09,1.69C14.77,43.28,14.14,43,13.23,43
		c-0.97,0-1.48,0.54-1.48,1.3c0,0.82,0.54,1.13,1.14,1.48l1.15,0.67c1.26,0.72,1.85,1.41,1.85,2.96c0,2.24-1.54,3.31-3.58,3.31
		c-1.08,0-1.91-0.15-2.44-0.49L9.97,50.43z"/>
	<path class="st20" d="M19.25,48.36l1.47-5.14h0.03l1.34,5.14H19.25z M23.27,52.56h2.03l-3.45-11.01h-2.15l-3.58,11.01h1.97
		l0.76-2.65h3.68L23.27,52.56z"/>
	<path class="st20" d="M26.1,41.55h1.96v4.48h3.17v-4.48h1.96v11.01h-1.96v-4.87h-3.17v4.87H26.1V41.55z"/>
	<path class="st20" d="M35.17,41.55h1.97v11.01h-1.97V41.55z"/>
	<path class="st20" d="M73.08,41.55h1.97v11.01h-1.97V41.55z"/>
	<path class="st20" d="M41.44,41.55h1.97v4.66h0.04l3.05-4.66h2.26l-3.63,5.19l3.92,5.83h-2.38l-3.22-5.18h-0.04v5.18h-1.97V41.55z"
		/>
	<path class="st20" d="M65.52,41.55h5.62v1.6h-3.66v2.94h3.47v1.6h-3.47v3.25h3.81v1.62h-5.78V41.55z"/>
	<path class="st20" d="M96.36,48.36l1.47-5.14h0.03l1.35,5.14H96.36z M100.38,52.56h2.02l-3.44-11.01H96.8l-3.58,11.01h1.96
		l0.77-2.65h3.67L100.38,52.56z"/>
	<path class="st20" d="M102.94,50.43c0.39,0.25,1.23,0.68,2.27,0.68c0.86,0,1.63-0.49,1.63-1.59c0-0.79-0.44-1.14-1.39-1.68
		l-0.99-0.56c-1.06-0.6-1.75-1.48-1.75-2.89c0-1.98,1.58-3,3.37-3c1.13,0,1.93,0.3,2.24,0.39l-0.09,1.69c-0.48-0.19-1.1-0.47-2-0.47
		c-0.98,0-1.49,0.54-1.49,1.3c0,0.82,0.53,1.13,1.13,1.48l1.14,0.67c1.26,0.72,1.86,1.41,1.86,2.96c0,2.24-1.54,3.31-3.58,3.31
		c-1.07,0-1.9-0.15-2.44-0.49L102.94,50.43z"/>
	<path class="st20" d="M130.56,50.43c0.39,0.25,1.23,0.68,2.27,0.68c0.86,0,1.63-0.49,1.63-1.59c0-0.79-0.44-1.14-1.39-1.68
		l-0.99-0.56c-1.06-0.6-1.75-1.48-1.75-2.89c0-1.98,1.58-3,3.37-3c1.13,0,1.93,0.3,2.24,0.39l-0.09,1.69c-0.48-0.19-1.1-0.47-2-0.47
		c-0.98,0-1.49,0.54-1.49,1.3c0,0.82,0.53,1.13,1.13,1.48l1.14,0.67c1.26,0.72,1.86,1.41,1.86,2.96c0,2.24-1.54,3.31-3.58,3.31
		c-1.07,0-1.9-0.15-2.44-0.49L130.56,50.43z"/>
	<path class="st20" d="M118.07,41.55h1.97v11.01h-1.97V41.55z"/>
	<path class="st20" d="M112.12,43.15h-2.39v-1.61h6.73v1.61h-2.38v9.41h-1.96V43.15z"/>
	<path class="st20" d="M169.43,43.17h-2.39v-1.61h6.73v1.61h-2.38v9.41h-1.96V43.17z"/>
	<path class="st20" d="M87.04,41.54H89v9.41h3.53v1.61h-5.49V41.54z"/>
	<path class="st20" d="M129.11,52.32c-0.4,0.22-1.35,0.39-2.32,0.39c-3.25,0-4.92-2.45-4.92-5.67c0-3.22,1.67-5.67,4.86-5.67
		c1.09,0,1.98,0.3,2.38,0.46l-0.11,1.82c-0.4-0.21-1.03-0.6-2.02-0.6c-1.63,0-3.02,1.14-3.02,3.99c0,2.86,1.4,3.99,3.02,3.99
		c0.95,0,1.58-0.24,2.02-0.57L129.11,52.32z"/>
	<path class="st20" d="M175.44,41.56h1.96v4.48h3.18v-4.48h1.96v11.02h-1.96v-4.86h-3.18v4.86h-1.96V41.56z"/>
	<path class="st20" d="M140.24,41.54h2.33l3.56,8.65h0.03v-8.65h1.78v11.02h-2.35l-3.54-8.59h-0.03v8.59h-1.78V41.54z"/>
	<path class="st20" d="M153.73,41.4c2.22,0,4.26,1.7,4.26,5.67c0,3.96-2.04,5.67-4.26,5.67c-2.22,0-4.26-1.7-4.26-5.67
		C149.47,43.11,151.51,41.4,153.73,41.4z M153.73,51.19c1.24,0,2.24-1.09,2.24-4.12c0-3.03-1-4.12-2.24-4.12
		c-1.24,0-2.24,1.09-2.24,4.12C151.49,50.1,152.49,51.19,153.73,51.19z"/>
	<path class="st20" d="M79.35,41.54h3.07c2.21,0,3.36,1.26,3.36,3.35c0,2.08-1.15,3.36-3.36,3.36h-1.1v4.31h-1.96V41.54z
		 M82.05,46.71c1.23,0,1.76-0.62,1.76-1.82c0-1.2-0.54-1.8-1.76-1.8h-0.74v3.61H82.05z"/>
	<path class="st20" d="M159.52,41.56h3.34c1.9,0,3.19,0.88,3.19,2.9c0,1.44-0.87,2.4-2.07,2.59v0.05c0.4,0.06,0.84,0.25,1.18,1.28
		l1.4,4.2h-2.09L163.42,49c-0.26-0.87-0.77-1.15-1.49-1.15h-0.44v4.74h-1.96V41.56z M162.28,46.36c1.04,0,1.75-0.55,1.75-1.67
		c0-1.26-0.64-1.58-1.75-1.58h-0.8v3.25H162.28z"/>
	<path class="st20" d="M239.82,48.36l1.47-5.14h0.03l1.35,5.14H239.82z M243.83,52.57h2.02l-3.44-11.01h-2.15l-3.58,11.01h1.96
		l0.77-2.65h3.67L243.83,52.57z"/>
	<path class="st20" d="M189.46,48.36l1.47-5.14h0.03l1.35,5.14H189.46z M193.47,52.57h2.03l-3.45-11.01h-2.14l-3.59,11.01h1.96
		l0.77-2.65h3.68L193.47,52.57z"/>
	<path class="st20" d="M224.48,41.56h1.97v11.01h-1.97V41.56z"/>
	<path class="st20" d="M208.35,41.56h5.62v1.6h-3.66v2.94h3.47v1.6h-3.47v3.25h3.81v1.62h-5.78V41.56z"/>
	<path class="st20" d="M204.62,43.38h-0.03l-2.69,9.19h-1.4l-2.56-9.19h-0.03v9.19h-1.78V41.54h2.93l2.21,8.23h0.03l2.26-8.23h2.84
		v11.02h-1.78V43.38z"/>
	<path class="st20" d="M215.95,41.54h3.35c1.9,0,3.19,0.88,3.19,2.91c0,1.44-0.87,2.4-2.07,2.59v0.05c0.4,0.06,0.84,0.25,1.18,1.28
		l1.4,4.2h-2.09l-1.06-3.59c-0.26-0.87-0.77-1.15-1.49-1.15h-0.45v4.74h-1.96V41.54z M218.71,46.35c1.04,0,1.75-0.55,1.75-1.67
		c0-1.26-0.64-1.58-1.75-1.58h-0.8v3.25H218.71z"/>
	<path class="st20" d="M235.54,52.33c-0.4,0.22-1.35,0.39-2.32,0.39c-3.25,0-4.93-2.45-4.93-5.67s1.67-5.67,4.87-5.67
		c1.09,0,1.98,0.3,2.38,0.46l-0.11,1.82c-0.4-0.21-1.03-0.6-2.03-0.6c-1.63,0-3.02,1.14-3.02,4c0,2.86,1.4,4,3.02,4
		c0.95,0,1.58-0.24,2.03-0.57L235.54,52.33z"/>
</g>
</svg>
